<svg width="18" height="18" viewBox="0 0 18 18" fill="none" xmlns="http://www.w3.org/2000/svg">
<path d="M9.49297 9.88062L7.5763 11.7889C7.49819 11.8664 7.4362 11.9586 7.39389 12.0601C7.35159 12.1617 7.3298 12.2706 7.3298 12.3806C7.3298 12.4906 7.35159 12.5995 7.39389 12.7011C7.4362 12.8026 7.49819 12.8948 7.5763 12.9723C7.65377 13.0504 7.74594 13.1124 7.84749 13.1547C7.94904 13.197 8.05796 13.2188 8.16797 13.2188C8.27798 13.2188 8.3869 13.197 8.48845 13.1547C8.59 13.1124 8.68217 13.0504 8.75963 12.9723L12.093 9.63895C12.1688 9.5597 12.2283 9.46624 12.268 9.36395C12.3513 9.16107 12.3513 8.9335 12.268 8.73062C12.2283 8.62832 12.1688 8.53487 12.093 8.45562L8.75963 5.12228C8.68194 5.04458 8.58969 4.98295 8.48818 4.9409C8.38666 4.89885 8.27785 4.87721 8.16797 4.87721C8.05809 4.87721 7.94928 4.89885 7.84776 4.9409C7.74624 4.98295 7.654 5.04458 7.5763 5.12228C7.4986 5.19998 7.43697 5.29222 7.39492 5.39374C7.35287 5.49526 7.33123 5.60407 7.33123 5.71395C7.33123 5.82383 7.35287 5.93264 7.39492 6.03416C7.43697 6.13568 7.4986 6.22792 7.5763 6.30562L9.49297 8.21395H1.5013C1.28029 8.21395 1.06833 8.30175 0.912046 8.45803C0.755766 8.61431 0.667969 8.82627 0.667969 9.04728C0.667969 9.2683 0.755766 9.48026 0.912046 9.63654C1.06833 9.79282 1.28029 9.88062 1.5013 9.88062H9.49297ZM9.0013 0.71395C7.44388 0.706997 5.91567 1.13663 4.59003 1.95411C3.26438 2.77159 2.19435 3.94421 1.5013 5.33895C1.40185 5.53786 1.38548 5.76814 1.45581 5.97912C1.52613 6.19009 1.67739 6.36449 1.8763 6.46395C2.07521 6.56341 2.30549 6.57977 2.51647 6.50945C2.72745 6.43912 2.90185 6.28786 3.0013 6.08895C3.52813 5.02505 4.3295 4.12113 5.32259 3.47061C6.31569 2.82008 7.46449 2.44655 8.65026 2.38861C9.83604 2.33067 11.0158 2.59043 12.0676 3.14104C13.1194 3.69165 14.005 4.51314 14.6331 5.52061C15.2611 6.52808 15.6087 7.68499 15.64 8.87177C15.6712 10.0586 15.385 11.2322 14.8109 12.2713C14.2368 13.3104 13.3956 14.1774 12.3742 14.7826C11.3529 15.3879 10.1885 15.7094 9.0013 15.7139C7.7587 15.7193 6.53976 15.3743 5.48438 14.7183C4.42899 14.0624 3.57993 13.1222 3.03464 12.0056C2.93518 11.8067 2.76078 11.6554 2.5498 11.5851C2.33882 11.5148 2.10855 11.5312 1.90964 11.6306C1.71072 11.7301 1.55947 11.9045 1.48914 12.1155C1.41881 12.3264 1.43518 12.5567 1.53464 12.7556C2.19533 14.0852 3.19924 15.2141 4.44253 16.0257C5.68582 16.8372 7.12334 17.3018 8.6064 17.3714C10.0895 17.4411 11.5642 17.1133 12.8781 16.4219C14.192 15.7305 15.2973 14.7006 16.0797 13.4388C16.8621 12.177 17.2932 10.7291 17.3284 9.24479C17.3636 7.76051 17.0016 6.29378 16.2798 4.99631C15.5581 3.69884 14.5028 2.61776 13.2232 1.86487C11.9435 1.11199 10.486 0.714647 9.0013 0.71395Z" fill="#060E1E"/>
</svg>
