<svg width="26" height="32" viewBox="0 0 26 32" fill="none" xmlns="http://www.w3.org/2000/svg">
<path d="M12.8212 26.1991C16.6412 26.1991 20.4311 26.2729 24.2512 26.0957C24.8702 26.0662 25.5799 25.9776 25.8819 25.4459C26.2745 24.737 25.6101 23.9394 25.0363 23.3635C23.8586 22.1524 22.8772 20.7346 22.3185 19.1543C21.0049 15.4473 22.0618 11.1495 20.3405 7.59019C19.1175 5.07947 16.4902 3.26288 13.6516 3.02658C10.813 2.79028 7.88375 4.14902 6.31345 6.46775C5.19611 8.12187 4.77334 10.1305 4.57705 12.0947C4.38076 14.059 4.38076 16.0528 3.98819 18.0023C3.59561 19.9518 2.78026 21.8866 1.25525 23.1715C0.681482 23.6588 -0.0432748 24.161 0.00202249 24.8994C0.0322207 25.4163 0.454996 25.8446 0.953266 26.0219C1.45154 26.1991 1.98 26.2139 2.50847 26.2139C5.78498 26.2139 9.04638 26.1843 12.3229 26.1843H13.1835" fill="#004314"/>
<path d="M9.28589 29.9287H16.7145" stroke="#004314" stroke-width="3" stroke-linecap="round" stroke-linejoin="round"/>
<path d="M1.85718 21.4955H12.9918" stroke="white" stroke-width="2" stroke-linecap="round" stroke-linejoin="round"/>
<path d="M13 2.07153V4.70784" stroke="#004314" stroke-width="2.5" stroke-linecap="round" stroke-linejoin="round"/>
</svg>
