<svg width="28" height="33" viewBox="0 0 28 33" fill="none" xmlns="http://www.w3.org/2000/svg">
<path d="M13.9309 26.2977C17.4293 26.2977 20.9 26.3662 24.3983 26.2017C24.9653 26.1743 25.6152 26.092 25.8917 25.5983C26.2512 24.9401 25.6428 24.1996 25.1174 23.6648C24.0388 22.5404 23.14 21.224 22.6284 19.7567C21.4254 16.3148 22.3933 12.3244 20.817 9.01967C19.697 6.6885 17.291 5.00184 14.6914 4.78244C12.0918 4.56303 9.40928 5.8246 7.97122 7.9775C6.94798 9.51332 6.56081 11.3783 6.38105 13.202C6.20129 15.0258 6.20129 16.8771 5.84178 18.6871C5.48226 20.4972 4.73557 22.2936 3.33899 23.4866C2.81354 23.9391 2.14982 24.4053 2.19131 25.091C2.21896 25.5709 2.60613 25.9686 3.06244 26.1331C3.51875 26.2977 4.00271 26.3114 4.48668 26.3114C7.48725 26.3114 10.474 26.284 13.4746 26.284H14.2627" stroke="#C4C4C4" stroke-width="2.5" stroke-linecap="round" stroke-linejoin="round"/>
<path d="M10.3914 30.8778H16.7105" stroke="#C4C4C4" stroke-width="2.5" stroke-linecap="round" stroke-linejoin="round"/>
<path d="M14.0972 2.12231V4.74144" stroke="#C4C4C4" stroke-width="2.5" stroke-linecap="round" stroke-linejoin="round"/>
<path d="M5.58398 21.5781H16.8225" stroke="#C4C4C4" stroke-width="2" stroke-linecap="round" stroke-linejoin="round"/>
</svg>
