<svg width="24" height="25" viewBox="0 0 24 25" fill="none" xmlns="http://www.w3.org/2000/svg">
<path d="M21.5999 0.766788H2.39994C1.22127 0.766788 0.266602 1.72146 0.266602 2.90012V22.1001C0.266602 23.2788 1.22127 24.2335 2.39994 24.2335H13.0666V14.6335H9.8666V11.4335H13.0666V9.71506C13.0666 6.46172 14.6517 5.03346 17.3557 5.03346C18.6506 5.03346 19.3354 5.12946 19.6597 5.17319V8.23346H17.8154C16.6677 8.23346 16.2666 8.83932 16.2666 10.066V11.4335H19.6309L19.1743 14.6335H16.2666V24.2335H21.5999C22.7786 24.2335 23.7333 23.2788 23.7333 22.1001V2.90012C23.7333 1.72146 22.7775 0.766788 21.5999 0.766788Z" fill="white"/>
</svg>
