<svg width="29" height="25" viewBox="0 0 29 25" fill="none" xmlns="http://www.w3.org/2000/svg">
<g clip-path="url(#clip0_529_3035)">
<path d="M1.98111 1.05348L7.22959 2.1018C7.58358 2.21301 7.84227 2.57445 7.84227 2.99149V23.9686C7.84227 24.5803 7.29767 25.0251 6.76668 24.8583L1.5182 23.8656C1.15059 23.7544 0.905524 23.3929 0.905524 22.9759V1.92926C0.891908 1.3176 1.43651 0.872761 1.98111 1.05348Z" fill="#004314"/>
<path d="M11.1916 2.10178L17.332 0.141686C17.8766 -0.0390318 18.4212 0.405811 18.4212 1.03137V22.0641C18.4212 22.4811 18.1762 22.8426 17.8085 22.9538L11.6818 24.8583C11.1372 25.0251 10.6062 24.5803 10.6062 23.9686V2.99146C10.6062 2.58832 10.8513 2.22689 11.2189 2.10178H11.1916Z" fill="#004314"/>
<path d="M28.1081 2.07966V23.0568C28.1081 23.6685 27.5635 24.1133 27.0325 23.9465L21.7841 22.9538C21.4165 22.8425 21.1714 22.4811 21.1714 22.0641V1.01744C21.1714 0.405777 21.716 -0.0390661 22.2606 0.12775L27.5091 1.17607C28.1217 1.40999 28.1217 2.56049 28.1217 2.97753L28.1149 2.52859L28.1081 2.07966Z" fill="#004314"/>
</g>
<defs>
<clipPath id="clip0_529_3035">
<rect width="29" height="24.8" fill="white" transform="translate(0 0.0999756)"/>
</clipPath>
</defs>
</svg>
