<svg width="31" height="31" viewBox="0 0 31 31" fill="none" xmlns="http://www.w3.org/2000/svg">
<g clip-path="url(#clip0_529_6105)">
<path d="M15.5001 1.34784C23.3175 1.34784 29.6522 7.68262 29.6522 15.5C29.6522 19.9613 27.5901 23.9374 24.3553 26.5252C22.7649 23.2231 19.4088 20.9452 15.5001 20.9452C11.5914 20.9452 8.23529 23.2231 6.64486 26.5252C3.41007 23.9374 1.3479 19.9613 1.3479 15.5C1.3479 7.68262 7.68268 1.34784 15.5001 1.34784ZM20.2175 12.2383C20.2175 9.62349 18.1014 7.52088 15.5001 7.52088C12.8988 7.52088 10.7827 9.62349 10.7827 12.2383C10.7827 14.8531 12.8988 16.9557 15.5001 16.9557C18.1014 16.9557 20.2175 14.8396 20.2175 12.2383Z" fill="#004314"/>
<path d="M15.5001 16.9557C18.1054 16.9557 20.2175 14.8436 20.2175 12.2383C20.2175 9.63292 18.1054 7.52087 15.5001 7.52087C12.8948 7.52087 10.7827 9.63292 10.7827 12.2383C10.7827 14.8436 12.8948 16.9557 15.5001 16.9557Z" stroke="white" stroke-width="0.75" stroke-linecap="round" stroke-linejoin="round"/>
<path d="M6.64478 26.5387C8.23521 23.2231 11.5913 20.9453 15.5 20.9453C19.4087 20.9453 22.7648 23.2231 24.3552 26.5253" stroke="white" stroke-width="0.75" stroke-linecap="round" stroke-linejoin="round"/>
<path d="M24.3553 26.5252C27.5901 23.9374 29.6522 19.9613 29.6522 15.5C29.6522 7.68262 23.3175 1.34784 15.5001 1.34784C7.68268 1.34784 1.3479 7.68262 1.3479 15.5C1.3479 19.9613 3.41007 23.9374 6.64486 26.5252C9.05747 28.4796 12.144 29.6522 15.5001 29.6522C18.8562 29.6522 21.9427 28.4796 24.3553 26.5252Z" stroke="#004314" stroke-width="3" stroke-linecap="round" stroke-linejoin="round"/>
</g>
<defs>
<clipPath id="clip0_529_6105">
<rect width="31" height="31" fill="white"/>
</clipPath>
</defs>
</svg>
