<svg width="32" height="31" viewBox="0 0 32 31" fill="none" xmlns="http://www.w3.org/2000/svg">
<path d="M15.9999 17.8333C18.5772 17.8333 20.6666 15.744 20.6666 13.1667C20.6666 10.5893 18.5772 8.5 15.9999 8.5C13.4226 8.5 11.3333 10.5893 11.3333 13.1667C11.3333 15.744 13.4226 17.8333 15.9999 17.8333Z" stroke="#C4C4C4" stroke-width="2.5" stroke-linecap="round" stroke-linejoin="round"/>
<path d="M7.6001 26.7C9.0832 23.9337 12.2923 22.0333 16.0001 22.0333C19.7079 22.0333 22.9042 23.945 24.4001 26.7" stroke="#C4C4C4" stroke-width="2.5" stroke-linecap="round" stroke-linejoin="round"/>
<path d="M16 29.5C23.732 29.5 30 23.232 30 15.5C30 7.76801 23.732 1.5 16 1.5C8.26801 1.5 2 7.76801 2 15.5C2 23.232 8.26801 29.5 16 29.5Z" stroke="#C4C4C4" stroke-width="2.5" stroke-linecap="round" stroke-linejoin="round"/>
</svg>
